<svg xmlns="http://www.w3.org/2000/svg" viewBox="0 0 150 310" width="150" height="310"><defs><filter id="bamboo-b" filterUnits="userSpaceOnUse" x="-31" y="-31" width="212" height="372" color-interpolation-filters="sRGB"><feTurbulence type="fractalNoise" baseFrequency="0.08" numOctaves="2" seed="23"/><feDisplacementMap in="SourceGraphic" scale="2" xChannelSelector="R" yChannelSelector="G"/></filter><filter id="bamboo-w" filterUnits="userSpaceOnUse" x="-31" y="-31" width="212" height="372" color-interpolation-filters="sRGB"><feGaussianBlur stdDeviation="2" result="g"/><feTurbulence type="fractalNoise" baseFrequency="0.032" numOctaves="2" seed="30"/><feDisplacementMap in="g" scale="6" xChannelSelector="R" yChannelSelector="G"/></filter></defs><g filter="url(#bamboo-b)"><path d="M30 306q2 0 2-2 0-3 0-6 -1-4-1-8 0-4 0-10 0-5 0-10 0-4-1-4 -2 0-2 4 -1 5-1 10 0 6 0 10 0 4 1 8 0 3 0 6 0 3 2 2z" fill="#62665F" opacity=".45"/><path d="M26 266q0 0 1 0 1 0 1 0 1-1 2-1 0 0 1 1 1 0 1 0 0 0 0-1 -1-1-2-1 -1-1-2 0 -1 0-2 0 0 1 0 2z" fill="#292B29" opacity=".80"/><path d="M29 263q2 0 2-3 0-2 0-6 0-4 0-8 0-3-1-8 0-6 0-10 0-5-2-5 -1 0-2 5 0 4 0 10 0 5 0 9 1 4 1 7 0 4 0 6 0 3 2 3z" fill="#62665F" opacity=".45"/><path d="M26 222q0 1 0 0 1 0 2 0 0 0 0 0 1 0 2 0 1 0 1 0 0 0-1 0 0-1-1-2 -1 0-2 0 -1 0-1 1 -1 1 0 1z" fill="#292B29" opacity=".80"/><path d="M28 220q2 0 2-4 0-5 0-10 0-6 0-10 0-4 0-8 -1-3-1-6 0-2-1-2 -2 0-2 2 0 3 0 6 0 4 0 8 0 4 0 10 0 5 0 10 0 4 2 4z" fill="#62665F" opacity=".45"/><path d="M24 180q1 0 2 0 0-1 0-1 1 0 2 0 1 0 2 0 0 0 0 0 0 0 0-1 -1 0-2 0 -1-1-2 0 -1 0-2 0 0 1 0 2z" fill="#292B29" opacity=".80"/><path d="M27 177q2 0 2-3 0-4 0-8 0-5 0-10 0-4-1-8 0-3-2-3 -1 0-1 3 0 4 0 8 0 5 0 10 0 4 0 8 0 3 2 3z" fill="#62665F" opacity=".45"/><path d="M24 144q0 1 0 0 1 0 2 0 1 0 2 0 0 0 0 0 1 1 1 1 0 0-1-1 0-1 0-2 -1 0-2 0 -2 1-2 2 0 0 0 0z" fill="#292B29" opacity=".80"/><path d="M26 142q2 0 2-3 0-3 0-7 0-4 0-8 0-4 0-7 0-3-2-3 -2 0-2 3 0 3 0 7 0 4 0 8 0 4 0 7 1 3 2 3z" fill="#62665F" opacity=".45"/><path d="M23 114q0 0 1 0 1 0 2 0 0-1 0-1 1 0 2 1 1 0 1 0 0 0-1-1 0-1-1-1 -1-1-2 0 -1 0-1 0 -1 1-1 2z" fill="#292B29" opacity=".80"/><path d="M26 111q2 0 2-3 -1-3-1-6 0-4 0-8 0-3 0-6 0-3-1-3 -2 0-2 3 -1 3-1 6 0 4 0 8 0 4 1 6 0 3 2 3z" fill="#62665F" opacity=".45"/><path d="M22 84q1 1 2 0 0 0 0 0 1 0 2 0 1 0 2 0 0 0 0 0 0 0 0 0 -1-1-2-2 -1 0-2 0 -1 1-2 2 0 0 0 0z" fill="#292B29" opacity=".80"/><path d="M25 82q2 0 2-3 0-3 0-7 0-4 0-8 0-3-1-6 0-3-2-3 -1 0-1 3 0 3 0 6 0 4 0 8 0 4 0 7 0 3 2 3z" fill="#62665F" opacity=".45"/><path d="M22 54q0 0 0 0 1 0 2 0 1-1 2 0 0 0 0 0 1 0 1 0 0 0-1 0 0-1 0-2 -1 0-2 0 -1 1-2 2 0 0 0 0z" fill="#292B29" opacity=".80"/><path d="M24 52q2 0 2-3 1-3 1-6 0-3-1-7 0-3 0-6 0-3-2-2 -2 0-2 2 0 3 0 6 1 4 1 7 0 3 0 6 0 3 1 3z" fill="#62665F" opacity=".45"/><path d="M21 27q0 0 1 0 1 0 2-1 0 0 0 0 1 1 2 1 1 0 1 0 0 0-1-1 0 0-1-1 -1-1-2-1 -1 1-1 2 -1 1-1 1z" fill="#292B29" opacity=".80"/><path d="M58 306q3 1 4-2 0-4 0-9 0-5 0-9 0-5 0-8 0-4-3-4 -3 0-3 4 -1 3-1 8 0 4 0 8 0 5 0 8 0 4 3 4z" fill="#62665F" opacity=".60"/><path d="M54 274q0 0 1 0 1-1 3-1 1 0 2 0 1 0 2 0 2 0 2 0 0 0-1-1 -1 0-3 0 -1-1-2 0 -2 0-3 0 -1 1-1 2z" fill="#292B29" opacity=".80"/><path d="M58 271q4 0 4-5 0-4 0-10 0-5 0-11 1-6 0-11 0-4-2-4 -3 0-4 4 0 5 0 10 0 6 0 12 -1 6-1 10 0 5 3 5z" fill="#62665F" opacity=".60"/><path d="M55 230q0 0 1 0 1 0 2 0 2-1 3-1 1 0 3 1 1 0 1 0 0 0-1-1 -1-1-2-1 -2-1-4 0 -1 0-2 0 -1 1-1 2z" fill="#292B29" opacity=".80"/><path d="M60 227q3 0 3-3 0-4 0-8 0-5 0-9 0-4 0-7 0-4-3-4 -3-1-4 2 0 4 0 8 0 5 0 10 0 4 0 8 0 3 4 3z" fill="#62665F" opacity=".60"/><path d="M56 195q0 0 1 0 1 0 2-1 1 0 3 0 1 1 2 1 1 0 1 0 0 0-1-1 -1 0-2-1 -2-1-4-1 -1 1-2 2 -1 1 0 1z" fill="#292B29" opacity=".80"/><path d="M60 192q3 1 4-3 0-4 0-9 0-5 0-10 0-5 0-9 0-4-3-4 -3 0-3 4 -1 4-1 9 0 5 0 10 0 5 0 8 0 4 3 4z" fill="#62665F" opacity=".60"/><path d="M56 157q0 0 2 0 1 0 2-1 1 0 2 0 2 0 3 0 1 1 1 1 0 0-1-1 -1-1-3-2 -1 0-2 0 -2 1-3 2 -1 1-1 1z" fill="#292B29" opacity=".80"/><path d="M61 154q3 0 3-3 1-3 1-7 0-5 0-10 0-4-1-8 0-3-2-3 -3 0-4 3 0 4 0 8 0 5 0 9 0 4 0 7 0 4 3 4z" fill="#62665F" opacity=".60"/><path d="M57 122q0 1 1 0 1 0 2 0 2 0 3 0 1 0 3 0 1 1 1 1 0 0-1-1 -1-1-2-2 -2 0-4 0 -1 1-2 2 -1 0-1 0z" fill="#292B29" opacity=".80"/><path d="M62 120q3 0 4-3 0-3 0-7 0-5 0-9 0-4 0-7 -1-3-4-3 -2 0-2 3 -1 3-2 7 0 4 0 9 0 4 0 7 1 3 4 3z" fill="#62665F" opacity=".60"/><path d="M58 90q0 0 1 0 1 0 2 0 1-1 3 0 1 0 2 0 1 0 1 0 0 0-1 0 -1-1-2-2 -2 0-4 0 -1 0-2 1 -1 1 0 1z" fill="#292B29" opacity=".80"/><path d="M62 88q4 0 4-4 0-3 0-7 0-4 0-7 0-4 0-8 0-3-3-3 -3 0-3 3 -1 3-1 7 0 4 0 8 0 4 0 7 0 4 3 4z" fill="#62665F" opacity=".60"/><path d="M58 58q0 1 2 1 1 0 2-1 1 0 2 0 2 0 3 0 1 1 1 1 0 0-1-1 -1-1-3-2 -1 0-2 0 -2 1-3 2 -1 0-1 0z" fill="#292B29" opacity=".80"/><path d="M63 56q3 0 3-4 1-5 1-10 0-6 0-12 0-6 0-10 0-4-3-4 -3-1-4 4 0 4 0 10 0 6 0 12 0 5 0 10 0 4 3 4z" fill="#62665F" opacity=".60"/><path d="M59 15q0 0 1 0 1 0 2-1 2 0 4 0 1 1 2 1 1 0 1 0 0 0-1-1 -1 0-2-1 -2-1-4-1 -1 1-2 2 -1 1-1 1z" fill="#292B29" opacity=".80"/><path d="M96 306q3 0 2-4 0-3 0-8 0-5 0-10 0-5 0-8 -1-4-4-4 -2 0-2 4 -1 3 0 8 0 5 0 10 1 5 1 9 0 4 3 3z" fill="#62665F" opacity=".55"/><path d="M90 272q0 0 1 0 1-1 2-1 1 0 2 0 1 0 2 0 1 0 1 0 0 0 0-1 -1 0-2 0 -2-1-4 0 -1 0-2 0 0 1 0 2z" fill="#292B29" opacity=".80"/><path d="M94 269q3 0 3-5 0-4-1-10 0-5 0-10 0-6-1-10 -1-4-3-4 -2 0-2 4 0 5 0 10 0 5 0 10 1 6 1 10 0 5 3 5z" fill="#62665F" opacity=".55"/><path d="M88 230q0 0 1 0 1-1 2-1 1 0 2 0 1 0 2 0 1 0 1 0 0 0 0-1 -1 0-2 0 -2-1-4 0 -1 0-2 0 0 1 0 2z" fill="#292B29" opacity=".80"/><path d="M92 227q3 0 3-3 0-4-1-8 0-5 0-10 0-5 0-8 -1-4-4-4 -2 1-2 4 0 4 0 8 0 5 0 10 1 4 1 8 0 3 3 3z" fill="#62665F" opacity=".55"/><path d="M86 194q0 0 1 0 1 0 2 0 1-1 2 0 1 0 2 0 1 0 1 0 0 0 0 0 -1-1-2-2 -2 0-3 0 -1 0-2 1 -1 1-1 1z" fill="#292B29" opacity=".80"/><path d="M90 192q3-1 3-5 0-4-1-10 0-6 0-11 -1-6-1-10 0-4-3-4 -2 0-2 4 0 5 0 10 0 6 0 12 1 5 1 10 0 4 3 4z" fill="#62665F" opacity=".55"/><path d="M84 152q0 0 1 0 1-1 2-1 1 0 2 0 1 0 2 0 1 0 1 0 0 0 0-1 -1 0-2 0 -2-1-3 0 -1 0-2 0 -1 1-1 2z" fill="#292B29" opacity=".80"/><path d="M88 149q3 0 3-4 0-4-1-9 0-4 0-8 0-5 0-8 -1-4-4-4 -2 0-2 4 0 3 0 8 0 4 0 9 1 5 1 9 0 3 3 3z" fill="#62665F" opacity=".55"/><path d="M82 116q0 0 1 0 1-1 2-2 1 0 3 0 1 1 2 1 1 0 1 0 0 0-1-1 -1 0-2 0 -2-1-3 0 -1 0-2 0 -1 1-1 2z" fill="#292B29" opacity=".80"/><path d="M86 113q3 0 3-3 0-4 0-8 0-4-1-8 0-4 0-7 -1-3-4-3 -2 0-2 4 0 3 0 7 1 4 1 8 0 4 1 7 0 3 2 3z" fill="#62665F" opacity=".55"/><path d="M80 84q1 0 2 0 1 0 2 0 1-1 2-1 1 0 2 1 1 0 1 0 0 0-1-1 -1-1-2-1 -1-1-2 0 -2 0-3 0 -1 1-1 2z" fill="#292B29" opacity=".80"/><path d="M84 82q3-1 3-2 0-2 0-4 0-2 0-4 0-2 0-3 0-1-3-1 -2-1-2 1 -1 2-1 4 0 2 0 4 0 2 1 3 0 2 2 2z" fill="#62665F" opacity=".55"/><path d="M80 67q0 0 1 0 1 0 2-1 1 0 2 0 1 1 2 1 1 0 1 0 0 0 0-1 -1 0-2-1 -2-1-4-1 -1 1-2 2 0 1 0 1z" fill="#292B29" opacity=".80"/><path d="M58 48q0 0 4-3 3-3 6-6 2-3 2-3 0 0-3 2 -3 3-6 6 -3 4-3 4z" fill="#292B29" opacity=".70"/><path d="M70 36q0 0 4 0 4 0 9-2 5-1 9-4 3-4 6-6 4-3 4-3 0 0-4 2 -3 2-8 3 -4 2-8 4 -5 2-8 4 -4 1-4 2zM70 36q0 0 3 1 3 1 7 1 4 0 8-2 4-2 7-3 3-1 3-1 0 0-4 0 -3 1-6 1 -4 0-8 0 -4 0-7 1 -3 1-3 2zM70 36q0 0 4 2 3 3 8 6 5 2 10 2 6 1 10 2 4 1 4 1 0 0-4-1 -4-2-8-4 -5-3-10-5 -5-2-10-3 -4-1-4 0zM70 36q0 0 2 2 2 3 4 5 3 2 6 4 4 2 6 4 2 2 2 2 0 0-2-3 -1-2-4-5 -2-3-5-5 -3-3-6-4 -3-1-3 0zM70 36q0 0 0 4 -1 3 0 7 0 4 2 7 3 4 4 7 2 3 2 3 0 0-1-3 -1-3-1-7 -1-4-2-8 -1-4-2-7 -1-3-2-3z" fill="#292B29" opacity=".90"/><path d="M62 78q0 0-4-4 -3-4-6-7 -4-3-4-3 0 0 3 4 3 3 7 6 4 4 4 4z" fill="#292B29" opacity=".70"/><path d="M48 64q0-1-3-4 -3-2-7-4 -4-1-8-2 -5 0-8 0 -4-1-4-1 0 0 3 1 3 2 7 4 4 2 8 4 4 1 8 2 3 0 4 0zM48 64q0-1-4-2 -4-1-8-2 -5 0-10 0 -4 1-8 1 -4 0-4 0 0 0 4 1 3 0 8 2 5 1 10 1 4 0 8-1 3 0 4 0zM48 64q-1-1-4 0 -4 0-8 2 -5 1-10 4 -4 2-8 3 -3 1-3 1 0 0 3 0 4-1 9-2 5 0 9-2 5-2 8-4 4-2 4-2zM48 64q-1-1-4 2 -4 2-8 6 -4 3-6 8 -2 6-4 10 -1 3-1 3 0 0 2-3 2-4 6-8 4-3 7-7 3-4 6-7 2-4 2-4zM48 64q-1-1-4 2 -2 4-4 9 -3 5-4 11 0 6-1 10 -1 4-1 4 0 0 2-4 1-4 4-9 3-5 4-10 2-5 3-9 1-4 1-4z" fill="#292B29" opacity=".85"/><path d="M56 116q0 1 4-2 3-4 6-7 3-3 3-3 0 0-3 2 -4 3-7 6 -3 3-3 4z" fill="#292B29" opacity=".70"/><path d="M69 104q0 0 5 0 4-1 10-2 5-2 10-6 4-3 8-5 4-2 4-2 0 0-4 1 -4 2-10 4 -5 1-10 3 -5 2-9 4 -4 2-4 3zM69 104q0 0 3 2 4 1 8 2 5 1 10 0 4-1 8-2 4 0 4 0 0 0-4 0 -4 0-8-1 -5-1-9-1 -4-1-8-1 -4 0-4 1zM69 104q0 0 2 2 2 2 5 4 4 2 8 3 4 1 7 3 3 1 3 1 0 0-2-2 -3-2-6-5 -4-2-8-4 -3-1-6-2 -3-1-3 0zM69 104q0 0 1 3 1 3 4 7 3 3 6 6 3 3 6 5 2 2 2 2 0 0-2-3 -1-2-3-6 -2-4-5-8 -3-3-6-5 -3-2-3-1zM70 104q-1 0 0 4 0 4 2 9 1 5 4 9 3 5 5 8 2 4 2 4 0 0-1-4 -2-4-4-9 -1-5-2-9 -2-5-4-8 -2-4-2-4z" fill="#292B29" opacity=".80"/><path d="M30 68q0 0 4-2 5-3 8-6 4-3 4-3 0 0-4 3 -4 2-8 5 -4 3-4 3z" fill="#292B29" opacity=".70"/><path d="M46 58q0 0 4-2 5-1 10-3 4-2 9-4 5-2 9-3 4-1 4-1 0 0-4 1 -5 0-10 0 -6 1-10 4 -5 2-8 4 -4 3-4 4zM46 58q0 0 4 2 3 1 8 2 4 2 8 2 5 0 9 0 4 1 4 1 0 0-3-1 -4-1-8-3 -5-2-10-3 -4-1-8-1 -4 0-4 1zM46 58q0 0 4 2 3 2 7 4 4 3 9 5 5 2 8 4 4 2 4 2 0 0-3-3 -3-2-7-6 -4-4-8-6 -5-2-10-2 -4-1-4 0zM46 57q0 0 1 4 1 4 4 9 3 4 7 7 4 3 7 5 3 3 3 3 0 0-2-3 -3-3-6-7 -3-4-6-8 -2-4-4-7 -3-3-4-3z" fill="#62665F" opacity=".40"/><path d="M94 104q0 0 4-3 4-3 8-7 3-3 3-3 0 0-4 3 -4 3-7 6 -4 4-4 4z" fill="#292B29" opacity=".70"/><path d="M109 90q0 1 3 2 4 1 9 2 5 0 9-2 5-1 9-2 4-1 4-1 0 0-4 0 -4 0-9 0 -5 0-10 0 -4 0-8 1 -3 0-3 0zM108 90q0 1 4 4 3 2 8 4 4 2 9 3 5 1 9 1 4 1 4 1 0 0-4-1 -4-2-8-4 -4-2-8-4 -5-2-9-3 -4-1-5-1zM108 90q0 1 2 4 1 3 4 6 2 3 6 4 4 2 7 4 3 1 3 1 0 0-2-2 -3-2-6-5 -2-3-5-6 -3-2-5-4 -3-2-4-2z" fill="#292B29" opacity=".80"/><path d="M96 144q0 0-4-4 -4-3-8-6 -4-3-4-3 0 0 4 3 3 4 8 7 4 3 4 3z" fill="#292B29" opacity=".70"/><path d="M80 130q0 0-3-2 -3-1-7-2 -5-1-9 0 -4 1-7 2 -4 0-4 0 0 0 4 0 3 0 7 2 4 1 8 2 4 0 7 0 3-1 4-2zM80 130q-1 0-4 2 -4 1-8 4 -4 2-8 4 -3 3-6 5 -3 2-3 2 0 0 3-1 4-1 8-2 5-2 9-4 4-3 7-6 2-3 2-4zM80 131q-1 0-4 1 -2 2-5 5 -3 3-5 7 -1 4-2 8 -2 3-2 3 0 0 2-3 2-3 5-6 3-3 5-6 3-3 4-6 2-3 2-3z" fill="#292B29" opacity=".35"/><path d="M32 126q0 0-2-3 -3-3-6-5 -4-2-4-2 0 0 2 3 3 3 6 5 4 2 4 2z" fill="#292B29" opacity=".70"/><path d="M20 116q0-1-2-2 -1-2-3-3 -2-1-5-1 -2-1-4-2 -1-1-1-1 0 0 1 1 2 2 4 4 1 2 4 3 2 1 4 1 2 0 2 0zM20 116q0-1-2-2 -1-1-3-2 -2 0-5 0 -2 1-4 2 -1 0-1 0 0 0 1 0 2 1 4 2 2 1 4 1 2 0 4-1 2 0 2 0zM20 116q0-1-2-1 -2 0-4 1 -2 0-4 2 -2 1-4 2 -1 0-1 0 0 0 1 0 2 0 4 0 3 0 5 0 2-1 3-2 2-2 2-2zM20 116q0 0-2 1 -2 1-4 3 -2 3-4 6 -2 2-4 4 -1 1-1 1 0 0 2-1 2-1 5-2 3-2 5-4 2-3 3-6 0-2 0-2zM20 116q0 0-3 2 -3 3-5 8 -3 4-4 9 -1 5-2 9 -1 4-1 4 0 0 2-4 2-3 5-8 2-4 4-8 2-4 3-8 1-4 1-4z" fill="#292B29" opacity=".30"/><path d="M60 158q0-1-4-4 -3-3-8-6 -4-2-4-2 0 0 4 3 4 3 8 7 4 3 4 2z" fill="#292B29" opacity=".70"/><path d="M44 146q1-1-2-4 -3-3-7-6 -4-2-9-3 -5-1-8-2 -4-1-4-1 0 0 4 2 3 1 7 4 4 2 8 4 4 3 7 4 4 2 4 2zM44 146q0-1-4-1 -3 0-7 0 -4 0-8 1 -4 0-7 0 -4 0-4 0 0 0 3 0 3 1 7 2 5 2 10 2 4-1 7-2 3-2 3-2zM44 146q0-1-4-1 -3 0-7 1 -4 2-7 5 -4 3-7 5 -3 2-3 2 0 0 3-2 3-1 7-2 5-1 9-2 4-2 7-4 3-2 2-2zM44 146q0-1-3 1 -3 2-7 6 -3 4-5 9 -2 4-3 8 -2 3-2 3 0 0 2-3 2-3 5-7 3-4 6-7 3-4 5-7 3-3 2-3zM44 146q0-1-2 3 -1 4-2 9 -1 4-2 9 0 5 0 9 -1 3-1 3 0 0 1-3 2-4 4-8 2-5 3-10 1-5 1-8 -1-4-2-4z" fill="#292B29" opacity=".80"/></g></svg>
