<svg xmlns="http://www.w3.org/2000/svg" viewBox="0 0 130 100" width="130" height="100"><defs><filter id="lotus-b" filterUnits="userSpaceOnUse" x="-20" y="-20" width="170" height="140" color-interpolation-filters="sRGB"><feTurbulence type="fractalNoise" baseFrequency="0.1" numOctaves="2" seed="25"/><feDisplacementMap in="SourceGraphic" scale="2.2" xChannelSelector="R" yChannelSelector="G"/></filter><filter id="lotus-w" filterUnits="userSpaceOnUse" x="-20" y="-20" width="170" height="140" color-interpolation-filters="sRGB"><feGaussianBlur stdDeviation="2.5" result="g"/><feTurbulence type="fractalNoise" baseFrequency="0.04" numOctaves="2" seed="32"/><feDisplacementMap in="g" scale="5.5" xChannelSelector="R" yChannelSelector="G"/></filter></defs><g filter="url(#lotus-w)"><path d="M33 54.3q-11.9-1.1-18-4.8 -6.2-3.6-3.3-8 2.9-4.3 8.5-8.5 5.6-4.2 17.9-6.1 12.3-2 23.7-1.1 11.4.9 22.4 2.6 10.9 1.6 11.4 6 .5 4.3-3.4 8.4 -3.9 4-13.3 7.1 -9.4 3.1-21.7 4.3 -12.3 1.2-24.2.1z" fill="#788C7A" opacity=".50"/><path d="M90.5 46.2q-3.1 3.2-12.1 5.3 -9 2.2-18.4 1.5 -9.5-.6-16.4-2.7 -6.8-2-5.5-5.3 1.3-3.3 7.8-6.2 6.5-2.9 16.3-3 9.8 0 17.6 1 7.8.9 10.8 3.6 3 2.7-.1 5.8z" fill="#62665F" opacity=".30"/><path d="M108 32.2q.2 4.8-2.9 6.9 -3.1 2.1-5.9.6 -2.8-1.6-5.2-4.1 -2.5-2.5-2.5-7 .1-4.4 2.1-7.5 2-3 4.7-3.9 2.7-.8 5.5.7 2.7 1.4 3.4 5.5 .6 4.1.8 8.8z" fill="#B9BCAE" opacity=".50"/></g><g filter="url(#lotus-b)"><path d="M9.2 41.3q.5 0 .6-.9 0-.9.4-2 .3-1.2 1.2-2.1 .9-.9 2.3-1.8 1.3-.9 3.1-1.7 1.8-.8 3.9-1.6 2.1-.7 4.6-1.4 2.5-.7 5.2-1.2 2.8-.6 5.8-1 3-.5 6.2-.7 3.1-.3 6.4-.4 3.2-.1 6.5-.1 3.2.1 6.4.2 3.2.1 6.4.3 3.1.2 6 .6 2.9.3 5.6.9 2.7.5 5.1 1.1 2.4.7 4.4 1.5 2.1.8 3.8 1.8 1.6.9 2.8 1.9 1.2 1 1.9 2.2 .6 1.2.9 2.1 .3 1 .3 1 0 0-.3-1 -.3-.9-.9-2.1 -.7-1.3-1.9-2.4 -1.2-1-2.8-2 -1.6-1-3.6-1.9 -2-.9-4.3-1.7 -2.4-.9-5.1-1.7 -2.7-.7-5.6-1.3 -3-.6-6.2-1.1 -3.1-.6-6.3-.9 -3.3-.3-6.6-.3 -3.4 0-6.7.2 -3.3.1-6.5.4 -3.2.4-6.3.8 -3.1.4-5.9 1 -2.8.7-5.4 1.4 -2.5.7-4.7 1.6 -2.3.9-4.1 1.9 -1.8 1.1-3.1 2.2 -1.4 1.2-2.3 2.4 -1 1.1-1.3 2.5 -.3 1.3-.3 2.3 -.1 1 .4 1z" fill="#292B29" opacity=".70"/><path d="M96.5 44.1q-.2-.2-1.3.8 -1.2 1-3 2.1 -1.7 1.2-3.9 2 -2.1.9-4.5 1.8 -2.5.8-5.4 1.5 -2.8.7-5.9 1.2 -3.1.5-6.4.9 -3.4.3-6.8.5 -3.4.2-6.8.2 -3.5 0-6.9-.1 -3.4-.2-6.6-.6 -3.3-.4-6.3-.9 -3.1-.5-5.8-1.2 -2.7-.7-5.1-1.6 -2.4-.9-4.4-2.1 -2-1.2-3.3-2.1 -1.4-1-1.4-1 0 0 1.4 1 1.3 1 3.3 2.2 2 1.2 4.3 2.2 2.3 1 5.1 1.9 2.7.8 5.7 1.6 3 .7 6.3 1.1 3.3.5 6.7.9 3.4.3 6.9.4 3.5 0 7 0 3.5-.1 6.8-.4 3.4-.4 6.6-1 3.2-.6 6.1-1.3 2.9-.7 5.4-1.6 2.6-.9 4.8-2 2.1-1.2 3.7-2.6 1.7-1.4 2.8-2.5 1.1-1.1.9-1.3z" fill="#62665F" opacity=".60"/><path d="M58 42q0 .4 8 .7 7.9.3 15.9.3 8 0 8 0 0 0-7.9-.5 -8-.6-16-.7 -8-.2-8 .2zM58 42q-.1.4 5.6 2.4 5.7 2 11.6 3.6 5.8 1.6 5.8 1.6 0 0-5.7-2.2 -5.6-2.2-11.4-4 -5.8-1.8-5.9-1.4zM58 42q-.4.1.5 2.9 .9 2.8 2.1 5.4 1.3 2.6 1.3 2.6 0 0-.7-2.8 -.7-2.8-1.7-5.5 -1.1-2.7-1.5-2.6zM58 42q-.1-.3-5.7 1.5 -5.5 1.9-10.9 4.2 -5.4 2.3-5.4 2.3 0 0 5.6-1.7 5.6-1.7 11.1-3.8 5.4-2.2 5.3-2.5zM58 42q0-.4-8-.5 -8 0-16 .3 -8 .3-8 .3 0 0 8 .3 8 .2 16 .1 8-.1 8-.5zM58 42q.1-.4-6.2-2.1 -6.3-1.8-12.7-3.2 -6.3-1.5-6.3-1.5 0 0 6.2 2 6.3 1.9 12.6 3.6 6.3 1.6 6.4 1.2zM58 42q.4.1 1.3-2.6 1-2.7 1.5-5.5 .6-2.8.6-2.8 0 0-1.2 2.7 -1.1 2.6-1.8 5.3 -.8 2.8-.4 2.9zM58 42q.1.4 6.5-1.2 6.3-1.6 12.5-3.6 6.3-1.9 6.3-1.9 0 0-6.4 1.4 -6.4 1.4-12.7 3.2 -6.3 1.7-6.2 2.1z" fill="#62665F" opacity=".55"/><path d="M58 46q-1.2.1-.6 5.2 .6 5.2.9 12 .3 6.8-.1 11.6 -.5 4.8-1.2 9.9 -.6 5-1.2 8.6 -.5 3.6.2 3.7 .7.1 1.4-3.5 .7-3.5 1.8-8.5 1-5.1 1.6-10 .6-5 .2-11.9 -.5-6.9-1.1-12.1 -.7-5.1-1.9-5z" fill="#292B29" opacity=".75"/><path d="M57.7 62.3q-.1-.3 0-.5 .1-.3.4-.4 .3-.2.7-.2 .3.1.6.3 .3.2.1.5 -.1.2-.2.5 -.1.2-.4.3 -.4 0-.8-.1 -.3-.1-.4-.4zM58.5 74q0-.3.3-.5 .2-.2.5-.2 .3 0 .7.1 .3.1.3.4 0 .2-.1.4 -.1.3-.4.5 -.3.2-.7.1 -.3-.1-.4-.3 -.1-.3-.2-.5zM59.8 86.5q-.2.3-.6.3 -.3-.1-.7-.1 -.3-.1-.4-.4 -.1-.3.1-.5 .2-.2.4-.4 .3-.2.6-.2 .4 0 .6.3 .2.2.2.5 -.1.2-.2.5zM100 46q.5-.5-1.7-3.1 -2.2-2.7-4.2-5.9 -2-3.2-1.5-6.5 .5-3.3 1.9-6.6 1.5-3.4 3-6.5 1.5-3.1 3-5.2 1.5-2.2 1.5-2.2 0 0-1.8 2 -1.7 2-4 4.8 -2.2 2.7-3.7 6.3 -1.6 3.5-2.1 7.3 -.5 3.8 1.8 7.5 2.2 3.6 4.8 6.1 2.5 2.5 3 2z" fill="#292B29" opacity=".80"/><path d="M100 46q.4.3 2.7-2.2 2.2-2.4 4.2-6 2-3.6 2-7.3 0-3.8-1.1-7.3 -1.1-3.4-2.5-6.3 -1.3-2.8-2.3-4.8 -1-2.1-1-2.1 0 0 .8 2.1 .9 2.1 1.7 5.1 .8 3 1.4 6.4 .7 3.4.9 6.8 .3 3.4-1.6 6.7 -1.9 3.3-3.8 5.9 -1.8 2.7-1.4 3z" fill="#292B29" opacity=".75"/><path d="M100 44q.2 0 .3-3 .1-3 .3-7 .1-4 .3-6.9 .2-2.8.4-5.9 .2-3 .5-5.1 .2-2.1.2-2.1 0 0-.3 2.1 -.4 2.1-1 5.1 -.6 3-1 5.9 -.4 2.9-.4 6.9 0 4 .2 7 .3 3 .5 3z" fill="#62665F" opacity=".50"/><path d="M100 46q-1.2-.1-1.5 5 -.3 5.2-.9 12.1 -.6 6.8-1.6 11.6 -1 4.8-2 9.9 -1.1 5.1-1.9 8.6 -.8 3.6-.1 3.8 .7.2 1.6-3.3 .9-3.6 2.2-8.7 1.3-5 2.2-10 1-4.9 1.8-11.8 .7-6.8 1-12 .4-5.1-.8-5.2z" fill="#292B29" opacity=".75"/><path d="M30 96q0 .2 8.7.7 8.7.5 20 .8 11.3.2 19 .1 7.7-.2 15.5-.6 7.8-.5 13.3-.8 5.5-.2 5.5-.2 0 0-5.5.1 -5.5.1-13.3.1 -7.8-.1-15.5 0 -7.7.1-19-.1 -11.3-.2-20-.3 -8.7 0-8.7.2z" fill="#778C99" opacity=".40"/></g></svg>
